<?xml version="1.0" standalone="no"?>
<!DOCTYPE svg PUBLIC "-//W3C//DTD SVG 20010904//EN"
 "http://www.w3.org/TR/2001/REC-SVG-20010904/DTD/svg10.dtd">
<svg version="1.0" xmlns="http://www.w3.org/2000/svg"
 width="600.000000pt" height="343.000000pt" viewBox="0 0 600.000000 343.000000"
 preserveAspectRatio="xMidYMid meet">
<g transform="translate(0.000000,343.000000) scale(0.050000,-0.050000)"
fill="#d7af4d" stroke="none">
<path d="M6620 6450 c0 -6 11 -28 24 -49 19 -31 17 -51 -13 -107 -27 -49 -34
-92 -26 -151 6 -46 3 -88 -7 -94 -10 -6 -18 16 -18 49 0 81 -32 96 -47 20 -9
-41 -21 -56 -38 -46 -14 8 -19 8 -11 -1 7 -8 6 -34 -2 -58 -33 -89 -44 -156
-23 -144 11 7 16 1 10 -13 -6 -17 13 -36 49 -49 l60 -23 -3 78 c-2 43 7 88 21
102 19 19 24 17 24 -10 0 -19 8 -34 19 -34 10 0 14 30 8 67 -7 40 -2 74 11 82
14 9 22 -8 22 -49 0 -81 35 -146 72 -132 38 14 36 -36 -2 -68 -17 -14 -26 -30
-20 -36 25 -26 110 86 110 144 -1 48 -5 55 -20 32 -14 -22 -20 -9 -21 50 l-3
80 -19 -66 c-10 -36 -26 -61 -36 -55 -9 6 -5 52 10 101 28 92 12 219 -17 142
-8 -19 -23 -29 -33 -22 -13 7 -8 41 11 89 30 74 29 80 -14 129 -41 48 -78 67
-78 42z"/>
<path d="M5750 5702 c-99 -52 -331 -173 -515 -269 -184 -97 -339 -183 -345
-193 -30 -49 42 -31 183 47 86 48 301 161 477 253 176 92 334 175 351 186 23
14 86 -11 240 -92 949 -501 839 -447 839 -407 0 15 -36 43 -80 63 l-80 36 0
167 0 167 -170 0 -170 0 0 -70 c0 -88 23 -94 -286 69 l-264 138 -180 -95z
m1030 -212 c0 -152 8 -148 -142 -65 -107 58 -118 71 -118 130 l0 65 130 0 130
0 0 -130z"/>
<path d="M5820 4280 l0 -942 120 6 121 6 0 930 0 930 -121 6 -120 6 0 -942z"/>
<path d="M3380 4959 c-170 -6 -291 -12 -268 -15 105 -10 108 -29 108 -679 0
-662 1 -658 -88 -696 -55 -24 -26 -27 268 -27 282 1 322 5 273 26 -91 41 -92
52 -93 694 0 662 0 661 110 681 102 20 -27 26 -310 16z"/>
<path d="M4928 4957 c-4 -6 20 -18 54 -24 33 -7 87 -39 119 -71 l59 -59 1
-516 c1 -308 9 -501 19 -477 9 22 18 253 19 513 l1 474 51 61 c31 37 79 66
121 74 38 7 66 17 61 22 -14 14 -496 17 -505 3z"/>
<path d="M4260 4946 c101 -37 100 -33 100 -644 0 -666 -2 -676 -174 -728 -96
-30 -95 -30 174 -31 l270 -2 -80 37 c-157 72 -152 50 -161 685 -5 360 -1 552
11 527 29 -63 420 -1206 420 -1229 0 -14 93 -21 255 -20 248 2 253 2 190 34
-35 18 -70 51 -77 74 -8 22 -19 46 -27 51 -7 6 -105 280 -218 610 -112 330
-208 611 -213 625 -6 18 -75 25 -254 23 -135 0 -232 -6 -216 -12z"/>
<path d="M6510 4945 c109 -27 111 -41 105 -703 l-5 -610 -68 -46 -68 -46 501
0 501 0 8 185 c9 187 -7 265 -33 163 -38 -153 -206 -291 -389 -320 l-82 -13
-2 312 c-2 172 -3 345 -3 383 0 39 1 210 3 380 l2 310 47 0 c183 0 433 -208
433 -361 0 -14 7 -19 15 -11 8 8 15 100 15 203 l0 189 -510 -2 c-280 -2 -492
-7 -470 -13z"/>
<path d="M7960 4925 l70 -35 0 -640 0 -640 -70 -35 c-69 -35 -67 -35 260 -34
295 0 323 3 268 28 -89 38 -88 32 -88 733 l0 638 88 0 c163 0 257 -129 255
-348 -3 -208 -92 -332 -240 -332 -84 0 -87 -2 -57 -35 17 -19 55 -125 84 -234
121 -455 291 -600 587 -502 104 34 136 71 64 71 -90 0 -137 77 -271 450 -20
56 -69 132 -111 173 l-76 72 80 11 c367 49 400 574 41 673 -145 40 -967 27
-884 -14z"/>
<path d="M7232 4417 c-29 -63 -59 -91 -135 -127 -95 -43 -96 -46 -46 -59 86
-21 149 -72 191 -154 56 -110 58 -104 58 173 0 270 -10 293 -68 167z"/>
</g>
</svg>
