<?xml version="1.0" encoding="UTF-8"?>
<svg xmlns="http://www.w3.org/2000/svg" xmlns:xlink="http://www.w3.org/1999/xlink" width="512px" height="512px" viewBox="0 0 512 512" version="1.1">
<g id="surface1">
<path style=" stroke:none;fill-rule:nonzero;fill:rgb(84.313726%,68.627453%,30.19608%);fill-opacity:1;" d="M 298.894531 18.449219 C 301.574219 21.972656 301.289062 28.796875 298.15625 37.972656 C 295.59375 45.332031 295.535156 45.972656 296.105469 58.769531 C 296.503906 67.945312 296.390625 71.996094 295.707031 71.996094 C 295.191406 71.996094 294.792969 69.222656 294.792969 65.8125 C 294.792969 61.972656 294.167969 58.132812 293.085938 55.785156 L 291.433594 51.945312 L 291.375 58.023438 C 291.375 61.757812 290.410156 66.878906 288.8125 71.785156 C 285.339844 82.453125 285.222656 93.4375 288.585938 101.117188 C 289.894531 103.996094 290.179688 105.277344 289.324219 103.996094 C 288.414062 102.71875 286.992188 99.410156 286.136719 96.746094 C 284.710938 92.476562 284.539062 92.371094 284.539062 95.570312 C 284.539062 98.558594 287.332031 105.382812 288.757812 105.703125 C 289.042969 105.8125 289.839844 106.132812 290.523438 106.453125 C 295.476562 108.691406 295.820312 108.691406 295.308594 106.238281 C 295.023438 104.851562 294.792969 101.4375 294.738281 98.664062 C 294.679688 94.398438 294.566406 94.078125 293.941406 96.746094 C 293.371094 99.410156 293.257812 99.089844 293.371094 94.929688 C 293.425781 92.15625 293.769531 90.238281 294.054688 90.558594 C 294.792969 91.410156 295.648438 87.039062 295.648438 82.769531 C 295.648438 78.292969 297.128906 81.066406 297.472656 86.292969 C 297.644531 88.425781 298.328125 90.453125 298.953125 90.878906 C 299.921875 91.519531 300.035156 90.023438 299.578125 83.410156 C 299.179688 77.4375 299.351562 73.917969 300.320312 70.398438 C 302.085938 64.105469 302.085938 63.996094 302.199219 75.625 C 302.371094 87.039062 302.769531 92.265625 303.625 93.863281 C 304.59375 95.679688 307.613281 96.105469 307.613281 94.398438 C 307.613281 93.542969 308.011719 92.796875 308.464844 92.796875 C 310.347656 92.796875 309.148438 100.691406 306.53125 105.492188 L 303.796875 110.613281 L 306.359375 108.585938 C 312.167969 103.996094 315.53125 93.757812 314.046875 84.90625 C 313.421875 81.382812 311.714844 80.210938 311.941406 83.625 C 312.226562 87.359375 311.882812 89.597656 311.03125 89.597656 C 310.515625 89.597656 310.402344 85.972656 310.746094 80.210938 C 311.03125 75.089844 310.859375 69.542969 310.402344 68.050781 C 309.777344 65.8125 309.492188 67.089844 309.035156 73.703125 C 308.523438 82.132812 307.328125 86.398438 306.1875 84.265625 C 305.847656 83.625 306.074219 79.679688 306.757812 75.519531 C 308.921875 61.542969 308.921875 44.796875 306.757812 44.796875 C 306.300781 44.796875 305.902344 46.503906 305.902344 48.746094 C 305.902344 53.117188 304.480469 55.570312 303.226562 53.222656 C 302.144531 51.199219 304.078125 36.585938 305.730469 34.238281 C 306.585938 33.171875 306.757812 31.359375 306.359375 28.902344 C 305.847656 26.023438 305.5625 25.703125 304.992188 27.410156 C 304.363281 29.117188 304.195312 29.011719 304.195312 26.769531 C 304.195312 23.039062 300.433594 15.996094 298.496094 15.996094 C 297.1875 15.996094 297.242188 16.425781 298.894531 18.449219 Z M 297.074219 56.316406 C 296.789062 57.597656 296.617188 57.171875 296.558594 55.359375 C 296.558594 53.652344 296.730469 52.691406 297.015625 53.222656 C 297.300781 53.757812 297.359375 55.144531 297.074219 56.316406 Z M 287.675781 85.117188 C 287.390625 86.398438 287.21875 85.972656 287.160156 84.15625 C 287.160156 82.453125 287.332031 81.492188 287.617188 82.023438 C 287.902344 82.558594 287.957031 83.945312 287.675781 85.117188 Z M 304.648438 92.796875 C 304.933594 93.652344 304.933594 94.398438 304.707031 94.398438 C 304.480469 94.398438 304.078125 93.652344 303.796875 92.796875 C 303.453125 91.945312 303.453125 91.199219 303.679688 91.199219 C 303.910156 91.199219 304.308594 91.945312 304.648438 92.796875 Z M 293.65625 105.066406 C 293.371094 105.597656 293.085938 105.171875 293.085938 103.996094 C 293.085938 102.824219 293.371094 102.398438 293.65625 102.929688 C 293.996094 103.570312 293.996094 104.425781 293.65625 105.066406 Z M 293.65625 105.066406 "/>
<path style=" stroke:none;fill-rule:nonzero;fill:rgb(84.313726%,68.627453%,30.19608%);fill-opacity:1;" d="M 289.667969 59.199219 C 289.667969 60.371094 289.953125 60.796875 290.238281 60.265625 C 290.578125 59.625 290.578125 58.664062 290.238281 58.132812 C 289.953125 57.492188 289.667969 58.023438 289.667969 59.199219 Z M 289.667969 59.199219 "/>
<path style=" stroke:none;fill-rule:nonzero;fill:rgb(84.313726%,68.627453%,30.19608%);fill-opacity:1;" d="M 287.730469 67.625 L 286.25 72.746094 L 287.957031 69.011719 C 289.382812 65.8125 290.179688 62.398438 289.441406 62.398438 C 289.324219 62.398438 288.585938 64.746094 287.730469 67.625 Z M 287.730469 67.625 "/>
<path style=" stroke:none;fill-rule:nonzero;fill:rgb(84.313726%,68.627453%,30.19608%);fill-opacity:1;" d="M 311.941406 76.15625 C 311.996094 77.972656 312.167969 78.398438 312.453125 77.117188 C 312.738281 75.945312 312.679688 74.558594 312.398438 74.023438 C 312.113281 73.492188 311.941406 74.449219 311.941406 76.15625 Z M 311.941406 76.15625 "/>
<path style=" stroke:none;fill-rule:nonzero;fill:rgb(84.313726%,68.627453%,30.19608%);fill-opacity:1;" d="M 227.289062 125.863281 C 208.378906 144.746094 175.28125 177.066406 171.125 180.691406 C 168.332031 183.039062 167.191406 188.796875 169.527344 188.796875 C 170.15625 188.796875 179.269531 180.265625 189.808594 169.917969 C 200.289062 159.464844 215.101562 144.957031 222.621094 137.703125 C 230.140625 130.34375 238.285156 122.34375 240.675781 119.785156 C 243.128906 117.226562 245.578125 115.199219 246.144531 115.199219 C 247.058594 115.199219 262.324219 130.023438 304.195312 171.410156 C 322.421875 189.546875 323.390625 190.292969 324.132812 186.453125 C 324.472656 184.851562 322.878906 182.503906 318.890625 178.773438 L 313.195312 173.332031 L 312.910156 149.863281 L 312.679688 126.398438 L 287.105469 126.398438 L 287.105469 136.746094 C 287.105469 148.691406 287.160156 148.585938 281.976562 143.039062 C 279.871094 140.796875 272.179688 133.117188 264.886719 125.972656 C 257.597656 118.929688 250.875 112.105469 249.964844 110.929688 C 246.945312 107.089844 244.210938 108.90625 227.289062 125.863281 Z M 309.320312 151.25 L 309.320312 169.8125 L 299.695312 160.316406 L 290.125 150.824219 L 289.839844 141.757812 L 289.609375 132.796875 L 309.320312 132.796875 Z M 309.320312 151.25 "/>
<path style=" stroke:none;fill-rule:nonzero;fill:rgb(84.313726%,68.627453%,30.19608%);fill-opacity:1;" d="M 237.542969 319.574219 L 237.542969 450.347656 L 246.714844 450.132812 L 255.945312 449.8125 L 256.113281 319.253906 L 256.34375 188.796875 L 237.542969 188.796875 Z M 237.542969 319.574219 "/>
<path style=" stroke:none;fill-rule:nonzero;fill:rgb(84.313726%,68.627453%,30.19608%);fill-opacity:1;" d="M 34.179688 225.597656 C 34.179688 226.453125 34.75 227.199219 35.433594 227.199219 C 37.769531 227.199219 40.730469 230.71875 42.152344 235.199219 C 44.148438 241.597656 44.320312 403.839844 42.324219 410.984375 C 41.128906 415.464844 36.171875 421.332031 34.863281 419.839844 C 34.464844 419.414062 34.179688 419.734375 34.179688 420.691406 C 34.179688 421.867188 41.46875 422.398438 56.851562 422.398438 C 71.777344 422.398438 79.410156 421.867188 79.066406 420.800781 C 78.726562 419.945312 77.8125 419.199219 76.902344 419.199219 C 76.046875 419.199219 74.167969 416.960938 72.6875 414.292969 L 70.066406 409.386719 L 70.066406 324.265625 C 70.066406 246.613281 70.179688 238.71875 71.546875 235.199219 C 73.542969 229.652344 75.308594 227.304688 77.472656 227.199219 C 78.496094 227.199219 79.582031 226.453125 79.921875 225.597656 C 80.265625 224.53125 72.515625 224 57.308594 224 C 42.4375 224 34.179688 224.53125 34.179688 225.597656 Z M 34.179688 225.597656 "/>
<path style=" stroke:none;fill-rule:nonzero;fill:rgb(84.313726%,68.627453%,30.19608%);fill-opacity:1;" d="M 119.625 225.597656 C 119.625 226.453125 120.480469 227.199219 121.5625 227.199219 C 123.785156 227.304688 126.691406 231.359375 128.058594 236.265625 C 129.367188 241.066406 129.367188 386.984375 128.058594 395.945312 C 126.234375 408.640625 119.742188 419.199219 113.703125 419.199219 C 112.335938 419.199219 110.96875 419.945312 110.683594 420.800781 C 110.285156 421.867188 116.777344 422.398438 129.480469 422.398438 C 147.199219 422.398438 153.121094 420.90625 144.351562 418.773438 C 139.621094 417.597656 134.550781 410.667969 132.558594 402.667969 C 131.078125 396.691406 128.910156 239.253906 130.335938 241.917969 C 130.507812 242.238281 137.058594 277.011719 144.863281 319.253906 C 152.667969 361.492188 160.128906 401.707031 161.4375 408.746094 L 163.773438 421.546875 L 181.945312 422.078125 C 194.082031 422.292969 199.890625 421.972656 199.550781 420.800781 C 199.207031 419.945312 198.238281 419.199219 197.269531 419.199219 C 196.300781 419.199219 194.421875 417.066406 193.054688 414.507812 L 190.546875 409.8125 L 190.546875 330.878906 C 190.605469 257.597656 190.71875 251.519531 192.144531 245.546875 C 194.765625 235.09375 200.859375 227.199219 206.328125 227.199219 C 207.523438 227.199219 208.492188 226.453125 208.492188 225.597656 C 208.492188 224.53125 201.65625 224 189.695312 224 C 177.730469 224 170.894531 224.53125 170.894531 225.597656 C 170.894531 226.453125 171.976562 227.199219 173.289062 227.199219 C 177.160156 227.199219 183.027344 233.8125 185.820312 241.386719 L 188.441406 248.320312 L 188.839844 325.757812 C 189.066406 368.320312 189.066406 403.199219 188.839844 403.199219 C 188.613281 403.199219 185.421875 386.773438 181.71875 366.824219 C 178.015625 346.773438 171.578125 311.679688 167.363281 288.746094 C 163.148438 265.917969 159.105469 243.945312 158.421875 240 C 157.679688 236.050781 156.710938 230.824219 156.199219 228.371094 L 155.285156 224 L 137.457031 224 C 126.121094 224 119.625 224.53125 119.625 225.597656 Z M 119.625 225.597656 "/>
<path style=" stroke:none;fill-rule:nonzero;fill:rgb(84.313726%,68.627453%,30.19608%);fill-opacity:1;" d="M 287.957031 225.597656 C 287.957031 226.453125 288.527344 227.199219 289.210938 227.199219 C 291.546875 227.199219 294.507812 230.71875 295.933594 235.199219 C 297.1875 239.253906 297.359375 248.105469 297.359375 323.09375 C 297.359375 417.066406 297.585938 413.867188 291.089844 419.199219 C 287.558594 422.1875 287.730469 422.1875 324.929688 422.292969 L 362.296875 422.398438 L 362.296875 395.199219 C 362.296875 366.078125 361.84375 363.09375 359.394531 376.640625 C 355.121094 400.105469 343.671875 416.105469 328.347656 419.945312 L 323.847656 421.121094 L 323.847656 227.199219 L 327.605469 227.199219 C 340.878906 227.199219 354.894531 246.398438 359.5625 270.824219 C 361.84375 282.984375 362.296875 280 362.296875 251.199219 L 362.296875 224 L 325.15625 224 C 300.890625 224 287.957031 224.53125 287.957031 225.597656 Z M 287.957031 225.597656 "/>
<path style=" stroke:none;fill-rule:nonzero;fill:rgb(84.313726%,68.627453%,30.19608%);fill-opacity:1;" d="M 394.3125 225.492188 C 394.597656 226.453125 395.394531 227.199219 396.078125 227.199219 C 398.355469 227.199219 401.320312 230.71875 402.742188 235.199219 C 403.996094 239.253906 404.167969 248.210938 404.167969 323.414062 C 404.167969 418.773438 404.394531 415.679688 397.390625 419.199219 C 391.519531 422.078125 393.171875 422.398438 417.042969 422.398438 C 432.25 422.398438 440 421.867188 439.65625 420.800781 C 439.316406 419.945312 438.289062 419.199219 437.378906 419.199219 C 436.410156 419.199219 434.472656 416.960938 433.164062 414.1875 L 430.65625 409.28125 L 430.65625 367.039062 C 430.65625 331.519531 430.828125 324.800781 431.851562 324.800781 C 434.074219 324.800781 436.410156 332.585938 438.289062 346.027344 C 446.320312 402.984375 451.222656 420.480469 461.875 429.867188 C 469.621094 436.691406 484.089844 434.132812 490.070312 424.851562 L 492.632812 420.90625 L 490.242188 420.90625 C 482.664062 420.691406 478.960938 411.199219 472.128906 374.398438 C 465.917969 341.332031 463.070312 332.265625 457.144531 326.824219 L 453.726562 323.625 L 458.625 322.453125 C 486.597656 316.160156 492.464844 251.304688 467.058594 229.332031 L 461.875 224.746094 L 427.808594 224.320312 C 403.882812 224 393.914062 224.320312 394.3125 225.492188 Z M 446.492188 229.867188 C 458.457031 242.664062 460.164062 295.464844 449.171875 314.773438 C 445.753906 320.851562 441.992188 323.199219 435.667969 323.199219 L 430.65625 323.199219 L 430.65625 226.34375 L 437.71875 227.199219 C 441.59375 227.625 445.523438 228.90625 446.492188 229.867188 Z M 446.492188 229.867188 "/>
<path style=" stroke:none;fill-rule:nonzero;fill:rgb(84.313726%,68.627453%,30.19608%);fill-opacity:1;" d="M 345.152344 296 C 341.507812 310.398438 335.410156 319.359375 328.003906 321.171875 C 323.617188 322.238281 323.847656 324.160156 328.460938 325.4375 C 335.46875 327.464844 342.304688 338.238281 345.835938 352.851562 L 347.375 359.144531 L 347.601562 341.226562 C 347.714844 331.304688 347.714844 315.09375 347.601562 305.171875 L 347.375 287.144531 Z M 345.152344 296 "/>
</g>
</svg>
